<svg width="44" height="42" viewBox="0 0 44 42" fill="none" xmlns="http://www.w3.org/2000/svg">
<path d="M24.2825 2.64295L27.3843 12.1892C27.8395 13.59 29.1449 14.5385 30.6179 14.5385L40.6554 14.5385C42.9803 14.5385 43.947 17.5136 42.066 18.8801L33.9455 24.78C32.7539 25.6458 32.2553 27.1805 32.7104 28.5813L35.8122 38.1276C36.5306 40.3387 33.9999 42.1774 32.119 40.8108L23.9985 34.911C22.8068 34.0452 21.1932 34.0452 20.0015 34.911L11.881 40.8108C10.0001 42.1774 7.46937 40.3387 8.18782 38.1276L11.2896 28.5813C11.7447 27.1805 11.2461 25.6458 10.0544 24.78L1.93395 18.8801C0.0530419 17.5136 1.0197 14.5385 3.34464 14.5385L13.3821 14.5385C14.8551 14.5385 16.1605 13.59 16.6157 12.1892L19.7175 2.64296C20.4359 0.431813 23.5641 0.431812 24.2825 2.64295Z" stroke="white" stroke-opacity="0.5"/>
</svg>
