<svg width="34" height="34" viewBox="0 0 34 34" fill="none" xmlns="http://www.w3.org/2000/svg">
<g clip-path="url(#clip0_259_238)">
<path d="M26.3685 0H7.63145C3.41672 0 0 3.41672 0 7.63145V26.3685C0 30.5833 3.41672 34 7.63145 34H26.3685C30.5833 34 34 30.5833 34 26.3685V7.63145C34 3.41672 30.5833 0 26.3685 0Z" fill="#FD3832"/>
<path fill-rule="evenodd" clip-rule="evenodd" d="M9.42114 23.2829C9.08129 23.1799 8.77119 22.9967 8.51703 22.7487C8.26287 22.5006 8.07209 22.1951 7.9608 21.8579C7.32485 20.1149 7.13641 12.8368 8.36122 11.4C8.76885 10.9326 9.34438 10.6448 9.96288 10.5992C13.2486 10.2458 23.4004 10.293 24.5663 10.7169C24.8942 10.8233 25.1938 11.0025 25.4426 11.2412C25.6915 11.4798 25.883 11.7716 26.0031 12.0948C26.6979 13.8967 26.7214 20.4447 25.9088 22.1759C25.6933 22.6265 25.3324 22.9915 24.8842 23.2122C23.6594 23.8246 11.0464 23.8129 9.42114 23.2829ZM14.6383 19.8676L20.5268 16.8056L14.6383 13.72V19.8676Z" fill="white"/>
</g>
<defs>
<clipPath id="clip0_259_238">
<rect width="34" height="34" fill="white"/>
</clipPath>
</defs>
</svg>
