<svg width="40" height="40" viewBox="0 0 40 40" fill="none" xmlns="http://www.w3.org/2000/svg">
<path d="M30.634 0H8.86595C3.96942 0 0 3.96942 0 8.86595V30.634C0 35.5306 3.96942 39.5 8.86595 39.5H30.634C35.5306 39.5 39.5 35.5306 39.5 30.634V8.86595C39.5 3.96942 35.5306 0 30.634 0Z" fill="#0B86CA"/>
<path d="M10.9436 16.4189H15.0482V29.6631H10.9436V16.4189ZM13.037 9.83789C13.5072 9.8379 13.967 9.97718 14.3582 10.2382C14.7494 10.4992 15.0545 10.8702 15.2351 11.3044C15.4157 11.7386 15.4636 12.2166 15.3728 12.678C15.2821 13.1394 15.0567 13.5636 14.7251 13.8971C14.3936 14.2306 13.9706 14.4584 13.5097 14.5518C13.0488 14.6452 12.5706 14.6 12.1354 14.4219C11.7001 14.2438 11.3274 13.9408 11.0641 13.5511C10.8009 13.1614 10.659 12.7025 10.6563 12.2322C10.6545 11.9185 10.7147 11.6074 10.8336 11.317C10.9524 11.0266 11.1275 10.7625 11.3487 10.54C11.57 10.3175 11.833 10.1409 12.1227 10.0204C12.4125 9.89991 12.7232 9.83789 13.037 9.83789ZM17.6752 16.4189H21.6293V18.225C22.0251 17.5495 22.5969 16.9942 23.2836 16.6182C23.9704 16.2423 24.7463 16.06 25.5286 16.0906C29.6333 16.0906 30.4679 18.827 30.4679 22.398V29.6631H26.3633V23.26C26.3633 21.7276 26.3633 19.7437 24.2289 19.7437C22.0945 19.7437 21.7661 21.4129 21.7661 23.1368V29.6905H17.6615L17.6752 16.4189Z" fill="white"/>
</svg>
