<svg width="36" height="36" viewBox="0 0 36 36" fill="none" xmlns="http://www.w3.org/2000/svg">
<g clip-path="url(#clip0_626_4598)">
<path d="M9.12882 35.8726C7.73637 35.857 6.35701 35.6017 5.05129 35.1176C4.0978 34.7652 3.23513 34.2041 2.52635 33.4754C1.79568 32.768 1.23377 31.9052 0.882353 30.9508C0.398736 29.6452 0.143711 28.2659 0.128471 26.8736C0.0215294 24.5591 0 23.8648 0 18C0 12.1352 0.0236471 11.4434 0.127412 9.12706C0.144502 7.73533 0.399841 6.35681 0.882353 5.05129C1.23548 4.09765 1.7966 3.23463 2.52494 2.52494C3.23284 1.79493 4.09592 1.23354 5.05023 0.882353C6.35595 0.398335 7.73531 0.142951 9.12776 0.127412C11.4431 0.0215294 12.1384 0 18 0C23.8616 0 24.5566 0.0236471 26.8729 0.127412C28.265 0.144381 29.6439 0.399722 30.9498 0.882353C31.9037 1.234 32.7665 1.7952 33.4747 2.52459C34.2043 3.23303 34.7657 4.09609 35.1176 5.05023C35.6018 6.35593 35.8573 7.73529 35.8729 9.12776C35.9788 11.4441 36.0004 12.1376 36.0004 18.0007C36.0004 23.8638 35.9788 24.5573 35.8729 26.8736C35.8561 28.2659 35.6007 29.6449 35.1176 30.9508C34.7523 31.8978 34.1927 32.7578 33.4748 33.4755C32.757 34.1931 31.8969 34.7525 30.9498 35.1176C29.6441 35.6018 28.2647 35.8573 26.8722 35.8729C24.558 35.9788 23.8624 36.0004 17.9993 36.0004C12.1362 36.0004 11.4427 35.9799 9.12847 35.8729" fill="url(#paint0_radial_626_4598)"/>
<path d="M9.12882 35.8726C7.73637 35.857 6.35701 35.6017 5.05129 35.1176C4.0978 34.7652 3.23513 34.2041 2.52635 33.4754C1.79568 32.768 1.23377 31.9052 0.882353 30.9508C0.398736 29.6452 0.143711 28.2659 0.128471 26.8736C0.0215294 24.5591 0 23.8648 0 18C0 12.1352 0.0236471 11.4434 0.127412 9.12706C0.144502 7.73533 0.399841 6.35681 0.882353 5.05129C1.23548 4.09765 1.7966 3.23463 2.52494 2.52494C3.23284 1.79493 4.09592 1.23354 5.05023 0.882353C6.35595 0.398335 7.73531 0.142951 9.12776 0.127412C11.4431 0.0215294 12.1384 0 18 0C23.8616 0 24.5566 0.0236471 26.8729 0.127412C28.265 0.144381 29.6439 0.399722 30.9498 0.882353C31.9037 1.234 32.7665 1.7952 33.4747 2.52459C34.2043 3.23303 34.7657 4.09609 35.1176 5.05023C35.6018 6.35593 35.8573 7.73529 35.8729 9.12776C35.9788 11.4441 36.0004 12.1376 36.0004 18.0007C36.0004 23.8638 35.9788 24.5573 35.8729 26.8736C35.8561 28.2659 35.6007 29.6449 35.1176 30.9508C34.7523 31.8978 34.1927 32.7578 33.4748 33.4755C32.757 34.1931 31.8969 34.7525 30.9498 35.1176C29.6441 35.6018 28.2647 35.8573 26.8722 35.8729C24.558 35.9788 23.8624 36.0004 17.9993 36.0004C12.1362 36.0004 11.4427 35.9799 9.12847 35.8729" fill="url(#paint1_radial_626_4598)"/>
<path d="M13.5808 18.0764C13.5808 17.1947 13.8424 16.3328 14.3323 15.5997C14.8222 14.8666 15.5185 14.2953 16.3332 13.9579C17.1478 13.6206 18.0442 13.5324 18.909 13.7045C19.7737 13.8766 20.568 14.3013 21.1914 14.9249C21.8148 15.5484 22.2393 16.3428 22.4112 17.2076C22.5831 18.0724 22.4947 18.9688 22.1572 19.7833C21.8196 20.5979 21.2481 21.2941 20.5149 21.7838C19.7817 22.2736 18.9198 22.5349 18.0381 22.5348C16.8558 22.5346 15.722 22.0648 14.8861 21.2287C14.0502 20.3926 13.5807 19.2587 13.5808 18.0764ZM11.1705 18.0764C11.1705 19.4347 11.5733 20.7625 12.3279 21.8918C13.0825 23.0212 14.1551 23.9014 15.41 24.4212C16.6648 24.941 18.0457 25.077 19.3778 24.812C20.71 24.547 21.9337 23.8929 22.8941 22.9325C23.8546 21.9721 24.5086 20.7484 24.7736 19.4162C25.0386 18.084 24.9026 16.7032 24.3828 15.4483C23.863 14.1934 22.9828 13.1209 21.8535 12.3663C20.7241 11.6117 19.3963 11.2089 18.0381 11.2089C17.1362 11.2088 16.2431 11.3864 15.4099 11.7316C14.5767 12.0767 13.8196 12.5825 13.1819 13.2202C12.5442 13.858 12.0383 14.615 11.6932 15.4483C11.3481 16.2815 11.1705 17.1745 11.1705 18.0764ZM23.5725 10.9368C23.5724 11.2542 23.6664 11.5645 23.8426 11.8285C24.0188 12.0925 24.2694 12.2983 24.5626 12.4199C24.8558 12.5415 25.1784 12.5734 25.4897 12.5116C25.8011 12.4498 26.0871 12.2971 26.3116 12.0728C26.5362 11.8484 26.6891 11.5625 26.7512 11.2513C26.8133 10.94 26.7816 10.6173 26.6603 10.324C26.5389 10.0307 26.3334 9.77997 26.0695 9.60351C25.8057 9.42706 25.4955 9.3328 25.1781 9.33266C24.7526 9.33284 24.3446 9.50189 24.0437 9.80266C23.7428 10.1034 23.5736 10.5113 23.5732 10.9368M12.6356 28.9629C11.7875 28.9536 10.9474 28.7984 10.1519 28.5041C9.57508 28.2817 9.05118 27.9411 8.61394 27.504C8.1767 27.0669 7.83582 26.5432 7.61323 25.9664C7.3188 25.171 7.1636 24.3309 7.15442 23.4828C7.08947 22.0731 7.07677 21.6496 7.07677 18.0782C7.07677 14.5068 7.09089 14.0843 7.15442 12.6732C7.1647 11.8253 7.31988 10.9853 7.61323 10.1896C7.83556 9.61256 8.17634 9.08852 8.6136 8.65126C9.05087 8.21399 9.5749 7.87321 10.1519 7.65089C10.9473 7.35646 11.7875 7.20125 12.6356 7.19207C14.0452 7.12713 14.4688 7.11442 18.0388 7.11442C21.6088 7.11442 22.0326 7.12819 23.4437 7.19242C24.2917 7.20271 25.1317 7.35788 25.9274 7.65124C26.5044 7.87359 27.0284 8.21437 27.4657 8.65163C27.9029 9.08889 28.2437 9.61292 28.4661 10.1899C28.7605 10.9853 28.9157 11.8255 28.9249 12.6736C28.9898 14.0854 29.0025 14.5068 29.0025 18.0785C29.0025 21.6503 28.9895 22.0724 28.9249 23.4835C28.915 24.3315 28.7598 25.1715 28.4661 25.9671C28.2435 26.5439 27.9026 27.0677 27.4654 27.5047C27.0281 27.9418 26.5042 28.2824 25.9274 28.5048C25.132 28.7992 24.2918 28.9544 23.4437 28.9636C22.0341 29.0285 21.6105 29.0412 18.0388 29.0412C14.467 29.0412 14.0449 29.0282 12.6356 28.9636M12.5248 4.78395C11.4151 4.80577 10.3171 5.0158 9.27771 5.40512C8.38918 5.74866 7.58224 6.27409 6.90863 6.9477C6.23502 7.62131 5.7096 8.42824 5.36606 9.31677C4.97679 10.3562 4.76676 11.4541 4.74489 12.5638C4.67889 13.9897 4.66406 14.4457 4.66406 18.0778C4.66406 21.7099 4.67924 22.1656 4.74489 23.5918C4.76675 24.7015 4.97679 25.7995 5.36606 26.8389C5.70962 27.7274 6.23505 28.5343 6.90866 29.2079C7.58226 29.8815 8.38919 30.407 9.27771 30.7505C10.3172 31.1397 11.4151 31.3497 12.5248 31.3717C13.9514 31.4367 14.4066 31.4525 18.0388 31.4525C21.6709 31.4525 22.1265 31.4374 23.5528 31.3717C24.6625 31.3498 25.7604 31.1398 26.7998 30.7505C27.6883 30.407 28.4953 29.8815 29.1689 29.2079C29.8425 28.5343 30.3679 27.7274 30.7115 26.8389C31.1012 25.7996 31.3113 24.7016 31.3327 23.5918C31.3976 22.1649 31.4124 21.7099 31.4124 18.0778C31.4124 14.4457 31.3972 13.9901 31.3327 12.5638C31.3108 11.4541 31.1008 10.3562 30.7115 9.31677C30.3679 8.42841 29.8426 7.6216 29.1692 6.94801C28.4958 6.27442 27.6892 5.7489 26.8009 5.40512C25.7616 5.01555 24.6636 4.80551 23.5538 4.78395C22.1276 4.71866 21.6719 4.70312 18.0405 4.70312C14.4091 4.70312 13.9524 4.7183 12.5255 4.78395" fill="white"/>
</g>
<defs>
<radialGradient id="paint0_radial_626_4598" cx="0" cy="0" r="1" gradientUnits="userSpaceOnUse" gradientTransform="translate(2.32976 35.2115) scale(45.7066)">
<stop offset="0.09" stop-color="#FA8F21"/>
<stop offset="0.78" stop-color="#D82D7E"/>
</radialGradient>
<radialGradient id="paint1_radial_626_4598" cx="0" cy="0" r="1" gradientUnits="userSpaceOnUse" gradientTransform="translate(24.936 34.0553) scale(40.2222)">
<stop offset="0.64" stop-color="#8C3AAA" stop-opacity="0"/>
<stop offset="1" stop-color="#8C3AAA"/>
</radialGradient>
<clipPath id="clip0_626_4598">
<rect width="36" height="36" fill="white"/>
</clipPath>
</defs>
</svg>
