<svg width="36" height="36" viewBox="0 0 36 36" fill="none" xmlns="http://www.w3.org/2000/svg">
<path fill-rule="evenodd" clip-rule="evenodd" d="M4.904 0H31.095C33.804 0 36 2.196 36 4.904V31.095C36 33.804 33.804 36 31.096 36H4.904C2.196 36 0 33.804 0 31.096V4.904C0 2.196 2.196 0 4.904 0Z" fill="#212121"/>
<path fill-rule="evenodd" clip-rule="evenodd" d="M23.2044 14.6065C24.7804 15.7325 26.7114 16.3945 28.7964 16.3945V12.3835C28.4014 12.3835 28.0084 12.3425 27.6224 12.2605V15.4175C25.5374 15.4175 23.6074 14.7545 22.0304 13.6295V21.8135C22.0304 25.9075 18.7094 29.2265 14.6134 29.2265C13.0854 29.2265 11.6644 28.7645 10.4844 27.9725C11.8314 29.3485 13.7094 30.2025 15.7874 30.2025C19.8834 30.2025 23.2044 26.8835 23.2044 22.7895V14.6065ZM24.6534 10.5605C23.8484 9.68148 23.3194 8.54448 23.2044 7.28748V6.77148H22.0914C22.3714 8.36848 23.3274 9.73348 24.6534 10.5605ZM13.0754 24.8315C12.6254 24.2415 12.3824 23.5205 12.3834 22.7785C12.3834 20.9055 13.9024 19.3875 15.7764 19.3875C16.1254 19.3875 16.4724 19.4405 16.8054 19.5465V15.4465C16.4164 15.3935 16.0244 15.3705 15.6314 15.3785V18.5695C15.2984 18.4635 14.9514 18.4105 14.6014 18.4105C12.7274 18.4105 11.2084 19.9285 11.2084 21.8015C11.2094 23.1265 11.9684 24.2735 13.0754 24.8315Z" fill="#EC407A"/>
<path fill-rule="evenodd" clip-rule="evenodd" d="M22.033 13.6295C23.609 14.7555 25.54 15.4175 27.625 15.4175V12.2605C26.461 12.0125 25.431 11.4045 24.656 10.5595C23.33 9.73248 22.375 8.36848 22.095 6.77148H19.172V22.7895C19.165 24.6565 17.649 26.1685 15.779 26.1685C14.677 26.1685 13.698 25.6435 13.078 24.8305C11.971 24.2725 11.212 23.1255 11.212 21.8015C11.212 19.9285 12.731 18.4105 14.605 18.4105C14.964 18.4105 15.31 18.4665 15.635 18.5695V15.3795C11.611 15.4625 8.375 18.7485 8.375 22.7905C8.375 24.8085 9.181 26.6375 10.489 27.9735C11.669 28.7655 13.09 29.2275 14.618 29.2275C18.714 29.2275 22.035 25.9085 22.035 21.8145L22.033 13.6295Z" fill="white"/>
<path fill-rule="evenodd" clip-rule="evenodd" d="M27.6291 12.2619V11.4079C26.5791 11.4099 25.5511 11.1159 24.6601 10.5599C25.4481 11.4229 26.4861 12.0179 27.6291 12.2619ZM22.0981 6.77192C22.0711 6.61892 22.0511 6.46592 22.0371 6.31092V5.79492H18.0011V21.8139C17.9951 23.6809 16.4781 25.1929 14.6081 25.1929C14.0591 25.1929 13.5411 25.0629 13.0821 24.8309C13.7021 25.6439 14.6811 26.1689 15.7831 26.1689C17.6531 26.1689 19.1691 24.6569 19.1761 22.7899V6.77192H22.0981ZM15.6381 15.3799V14.4709C15.3011 14.4249 14.9611 14.4019 14.6201 14.4019C10.5231 14.4019 7.20312 17.7209 7.20312 21.8149C7.20312 24.3819 8.50813 26.6439 10.4911 27.9739C9.18313 26.6379 8.37712 24.8089 8.37712 22.7909C8.37712 18.7489 11.6141 15.4629 15.6381 15.3799Z" fill="#81D4FA"/>
</svg>
