<svg width="40" height="41" viewBox="0 0 40 41" fill="none" xmlns="http://www.w3.org/2000/svg">
<path d="M20 0C8.923 0 0 9.06742 0 20.3237C0 31.58 8.923 40.6474 20 40.6474C31.076 40.6474 40 31.58 40 20.3237C40 9.06742 31.076 0 20 0Z" fill="url(#paint0_linear_285_181)"/>
<path opacity="0.05" d="M17.2208 12.1312C22.7748 12.1312 28.6207 13.3201 33.0057 15.8443C33.5897 16.1421 34.0277 16.7355 34.0277 17.6267C33.8827 18.6663 33.1507 19.4101 32.1287 19.4101C31.6907 19.4101 31.5438 19.2617 31.1058 19.1144C27.5978 17.0343 22.3368 15.8453 17.2208 15.8453C14.5898 15.8453 11.9587 16.1431 9.62075 16.7365C9.32775 16.7365 9.03575 16.8849 8.59775 16.8849C8.52275 16.8961 8.44875 16.9012 8.37675 16.9012C7.47175 16.9012 6.84375 16.0669 6.84375 15.1025C6.84375 14.0629 7.42875 13.4695 8.15875 13.3201C10.9357 12.4289 13.8588 12.1312 17.2208 12.1312ZM16.7817 18.6663C21.7517 18.6663 26.5747 19.8552 30.3747 22.23C30.9587 22.5257 31.2518 23.1212 31.2518 23.7147C31.2518 24.6069 30.6667 25.3487 29.7897 25.3487C29.3517 25.3487 29.0598 25.2024 28.7668 25.053C25.6988 23.1222 21.4587 21.9323 16.6367 21.9323C14.2977 21.9323 12.1058 22.23 10.4978 22.6771C10.0588 22.8235 9.91275 22.8235 9.62075 22.8235C8.74375 22.8235 8.15875 22.0817 8.15875 21.3388C8.15875 20.4476 8.59775 20.0015 9.32775 19.7058C11.5198 19.1124 13.7127 18.6663 16.7817 18.6663ZM17.2197 25.053C21.3127 25.053 25.1128 26.0905 28.3278 28.0243C28.7658 28.32 29.0588 28.6178 29.0588 29.3596C28.9128 29.9551 28.3277 30.3991 27.7437 30.3991C27.4517 30.3991 27.1588 30.2518 26.8668 30.1024C24.0898 28.4694 20.7277 27.5782 17.0747 27.5782C15.0277 27.5782 12.9817 27.8739 11.0817 28.32C10.7897 28.32 10.3508 28.4684 10.2048 28.4684C9.47375 28.4684 9.03575 27.8729 9.03575 27.2795C9.03575 26.5376 9.47375 26.0905 10.0588 25.9442C12.3968 25.3487 14.7357 25.053 17.2197 25.053ZM17.2208 11.115C13.4318 11.115 10.5547 11.492 7.90375 12.3364C6.64975 12.62 5.84375 13.6991 5.84375 15.1025C5.84375 16.6806 6.95575 17.9173 8.37675 17.9173C8.47175 17.9173 8.56875 17.9123 8.66775 17.9001C8.98675 17.8929 9.24175 17.834 9.43175 17.7913C9.49975 17.7761 9.56175 17.7558 9.62475 17.7527H9.74775L9.86375 17.7222C12.0827 17.1593 14.6268 16.8615 17.2218 16.8615C22.2948 16.8615 27.2967 18.0322 30.6027 19.9924L30.6927 20.0462L30.7917 20.0798C30.9007 20.1164 30.9868 20.154 31.0648 20.1865C31.3158 20.2932 31.6277 20.4263 32.1297 20.4263C33.6127 20.4263 34.8007 19.3339 35.0187 17.769L35.0288 17.6978V17.6257C35.0288 16.4357 34.4648 15.4612 33.4798 14.948C29.2348 12.5122 23.3108 11.115 17.2208 11.115ZM16.7817 17.6501C13.4907 17.6501 11.1308 18.1663 9.07075 18.7242L9.01275 18.7394L8.95775 18.7618C7.76375 19.2455 7.15875 20.1123 7.15875 21.3388C7.15875 22.7178 8.26275 23.8397 9.62075 23.8397C9.99175 23.8397 10.2467 23.8305 10.8097 23.6425C12.3817 23.2066 14.5237 22.9485 16.6367 22.9485C21.0777 22.9485 25.1988 24.0023 28.2397 25.9167L28.2777 25.9411L28.3177 25.9615C28.6517 26.1322 29.1097 26.3649 29.7887 26.3649C31.1927 26.3649 32.2508 25.2257 32.2508 23.7147C32.2508 22.7026 31.7208 21.7981 30.8638 21.3429C27.0368 18.961 22.0367 17.6501 16.7817 17.6501ZM17.2197 24.0368C14.6727 24.0368 12.2508 24.3386 9.81575 24.9585C8.71975 25.2329 8.03575 26.122 8.03575 27.2795C8.03575 28.5162 8.98875 29.4846 10.2048 29.4846C10.3768 29.4846 10.5387 29.447 10.7267 29.4043C10.8277 29.3809 11.0147 29.3382 11.0837 29.3362L11.1847 29.3332L11.3068 29.3098C13.3298 28.8352 15.2697 28.5944 17.0747 28.5944C20.4967 28.5944 23.7097 29.4195 26.3657 30.9824L26.3907 30.9977L26.4167 31.0109C26.7507 31.1816 27.2087 31.4163 27.7437 31.4163C28.7937 31.4163 29.7758 30.6379 30.0288 29.6065L30.0588 29.4856V29.3606C30.0588 28.1391 29.4637 27.5721 28.8807 27.1789L28.8587 27.1646L28.8368 27.1514C25.4518 25.1129 21.4337 24.0368 17.2197 24.0368Z" fill="black"/>
<path opacity="0.07" d="M17.2208 12.1311C22.7748 12.1311 28.6207 13.3201 33.0057 15.8443C33.5897 16.142 34.0277 16.7355 34.0277 17.6267C33.8827 18.6662 33.1507 19.4101 32.1287 19.4101C31.6907 19.4101 31.5438 19.2617 31.1058 19.1144C27.5978 17.0342 22.3368 15.8453 17.2208 15.8453C14.5898 15.8453 11.9587 16.143 9.62075 16.7365C9.32775 16.7365 9.03575 16.8849 8.59775 16.8849C8.52275 16.896 8.44875 16.9011 8.37675 16.9011C7.47175 16.9011 6.84375 16.0668 6.84375 15.1025C6.84375 14.0629 7.42875 13.4695 8.15875 13.3201C10.9357 12.4289 13.8588 12.1311 17.2208 12.1311ZM16.7817 18.6662C21.7517 18.6662 26.5747 19.8552 30.3747 22.23C30.9587 22.5257 31.2518 23.1212 31.2518 23.7146C31.2518 24.6068 30.6667 25.3487 29.7897 25.3487C29.3517 25.3487 29.0598 25.2023 28.7668 25.053C25.6988 23.1222 21.4587 21.9322 16.6367 21.9322C14.2977 21.9322 12.1058 22.23 10.4978 22.6771C10.0588 22.8234 9.91275 22.8234 9.62075 22.8234C8.74375 22.8234 8.15875 22.0816 8.15875 21.3388C8.15875 20.4476 8.59775 20.0015 9.32775 19.7058C11.5198 19.1123 13.7127 18.6662 16.7817 18.6662ZM17.2197 25.053C21.3127 25.053 25.1128 26.0905 28.3278 28.0243C28.7658 28.32 29.0588 28.6177 29.0588 29.3595C28.9128 29.955 28.3277 30.3991 27.7437 30.3991C27.4517 30.3991 27.1588 30.2518 26.8668 30.1024C24.0898 28.4694 20.7277 27.5782 17.0747 27.5782C15.0277 27.5782 12.9817 27.8739 11.0817 28.32C10.7897 28.32 10.3508 28.4684 10.2048 28.4684C9.47375 28.4684 9.03575 27.8729 9.03575 27.2794C9.03575 26.5376 9.47375 26.0905 10.0588 25.9441C12.3968 25.3487 14.7357 25.053 17.2197 25.053ZM17.2208 11.623C13.4738 11.623 10.6388 11.995 8.03275 12.8282C6.99075 13.0538 6.34375 13.9237 6.34375 15.1025C6.34375 16.3961 7.23675 17.4092 8.37675 17.4092C8.46075 17.4092 8.54575 17.4041 8.63375 17.3929C8.91375 17.3889 9.13975 17.3371 9.32275 17.2954C9.44175 17.268 9.54475 17.2446 9.62175 17.2446H9.68275L9.74275 17.2293C12.0008 16.6562 14.5868 16.3534 17.2218 16.3534C22.3798 16.3534 27.4758 17.5494 30.8548 19.5534L30.8997 19.5798L30.9497 19.596C31.0727 19.6377 31.1708 19.6794 31.2588 19.717C31.4898 19.8155 31.7287 19.9172 32.1297 19.9172C33.3767 19.9172 34.3388 19.0249 34.5238 17.6968L34.5288 17.6612V17.6257C34.5288 16.6247 34.0558 15.8097 33.2308 15.389C29.0798 13.001 23.2368 11.623 17.2208 11.623ZM16.7817 18.1581C13.7277 18.1581 11.5417 18.5809 9.19875 19.215L9.16975 19.2231L9.14175 19.2343C8.50475 19.4924 7.65775 19.9913 7.65775 21.3388C7.65775 22.2971 8.40775 23.3315 9.61975 23.3315C9.95975 23.3315 10.1608 23.3234 10.6528 23.1598C12.2897 22.7056 14.4797 22.4403 16.6357 22.4403C21.1687 22.4403 25.3828 23.5216 28.5028 25.4848C28.8478 25.6627 29.2277 25.8568 29.7887 25.8568C30.9077 25.8568 31.7508 24.9361 31.7508 23.7146C31.7508 22.8783 31.3087 22.1355 30.5967 21.7747C26.8817 19.4507 21.9617 18.1581 16.7817 18.1581ZM17.2197 24.5449C14.7137 24.5449 12.3317 24.8416 9.93675 25.4513C9.07275 25.6677 8.53575 26.3679 8.53575 27.2794C8.53575 28.1137 9.15975 28.9764 10.2048 28.9764C10.3208 28.9764 10.4508 28.947 10.6158 28.9084C10.7638 28.8748 10.9667 28.8281 11.0817 28.8281H11.1388L11.1947 28.8149C13.2547 28.3312 15.2327 28.0863 17.0747 28.0863C20.5847 28.0863 23.8838 28.9358 26.6168 30.5424C26.9478 30.7131 27.3287 30.9072 27.7437 30.9072C28.5707 30.9072 29.3448 30.2944 29.5438 29.4825L29.5588 29.4215V29.3595C29.5588 28.3312 29.0658 27.9125 28.6048 27.6015C25.2738 25.5966 21.3447 24.5449 17.2197 24.5449Z" fill="black"/>
<path d="M27.7437 30.3991C27.4517 30.3991 27.1588 30.2517 26.8668 30.1023C24.0898 28.4693 20.7277 27.5781 17.0747 27.5781C15.0277 27.5781 12.9817 27.8738 11.0817 28.32C10.7897 28.32 10.3508 28.4683 10.2048 28.4683C9.47375 28.4683 9.03575 27.8728 9.03575 27.2794C9.03575 26.5376 9.47375 26.0904 10.0588 25.9441C12.3968 25.3486 14.7357 25.0529 17.2197 25.0529C21.3127 25.0529 25.1128 26.0904 28.3278 28.0242C28.7658 28.32 29.0588 28.6177 29.0588 29.3595C28.9128 29.955 28.3277 30.3991 27.7437 30.3991ZM29.7897 25.3486C29.3517 25.3486 29.0598 25.2023 28.7668 25.0529C25.6988 23.1222 21.4587 21.9322 16.6367 21.9322C14.2977 21.9322 12.1058 22.23 10.4978 22.6771C10.0588 22.8234 9.91275 22.8234 9.62075 22.8234C8.74375 22.8234 8.15875 22.0816 8.15875 21.3388C8.15875 20.4476 8.59775 20.0015 9.32775 19.7058C11.5198 19.1123 13.7127 18.6662 16.7817 18.6662C21.7517 18.6662 26.5747 19.8551 30.3747 22.23C30.9587 22.5257 31.2518 23.1212 31.2518 23.7146C31.2518 24.6068 30.6667 25.3486 29.7897 25.3486ZM32.1287 19.41C31.6907 19.41 31.5438 19.2617 31.1058 19.1143C27.5978 17.0342 22.3368 15.8453 17.2208 15.8453C14.5898 15.8453 11.9587 16.143 9.62075 16.7365C9.32775 16.7365 9.03575 16.8848 8.59775 16.8848C7.57475 17.0332 6.84375 16.143 6.84375 15.1024C6.84375 14.0629 7.42875 13.4694 8.15875 13.32C10.9357 12.4288 13.8588 12.1311 17.2208 12.1311C22.7748 12.1311 28.6207 13.32 33.0057 15.8442C33.5897 16.142 34.0277 16.7354 34.0277 17.6266C33.8827 18.6662 33.1507 19.41 32.1287 19.41Z" fill="white"/>
<defs>
<linearGradient id="paint0_linear_285_181" x1="20" y1="-8.90687" x2="20" y2="53.1567" gradientUnits="userSpaceOnUse">
<stop stop-color="#4CAF50"/>
<stop offset="0.489" stop-color="#4AAF50"/>
<stop offset="0.665" stop-color="#43AD50"/>
<stop offset="0.79" stop-color="#38AA50"/>
<stop offset="0.892" stop-color="#27A550"/>
<stop offset="0.978" stop-color="#11A050"/>
<stop offset="1" stop-color="#0A9E50"/>
</linearGradient>
</defs>
</svg>
